<svg width="1340" height="179" viewBox="0 0 1340 179" fill="none" xmlns="http://www.w3.org/2000/svg">
<path d="M0.176638 137.644C12.1375 137.644 14.6105 129.692 17.26 116.624L35.2014 32.1638C37.851 19.0959 38.9108 11.1437 26.9247 11.1437L27.1013 10.0801H67.9551L67.7785 11.1437C55.8176 11.1437 53.3446 19.0959 50.6951 32.1638L32.7285 116.624C30.0789 129.692 29.0443 137.644 41.0052 137.644L40.8286 138.708H0L0.176638 137.644Z" fill="black"/>
<path d="M140.351 113.786C131.368 130.755 121.502 140.809 113.25 140.809C104.999 140.809 104.444 132.679 106.916 122.068L117.136 76.4822C119.962 65.0097 121.704 54.3984 113.452 54.3984C98.3117 54.3984 75.0712 93.8047 65.558 138.681H51.3008L75.5506 23.1468C77.8469 12.0037 75.9039 7.95159 70.1001 6.53337L70.4534 5.4697L93.8705 0.53125H94.5771L72.7497 104.239C85.5938 69.2644 104.444 43.9897 122.208 43.9897C136.642 43.9897 135.582 59.5395 131.368 77.9257L121.678 120.498C120.619 124.727 119.559 129.514 122.385 129.514C125.034 129.514 130.662 124.752 139.468 113.077L140.351 113.786Z" fill="black"/>
<path d="M213.027 45.4085L206.34 60.6037H205.28C203.161 59.54 201.42 59.1855 199.3 59.1855C181.157 59.1855 167.253 99.1237 158.799 138.707H144.719L160.389 64.3265C161.272 59.9199 162.332 55.3107 159.329 55.3107C156.856 55.3107 152.289 59.8946 145.955 68.2013L145.072 67.4922C152.819 52.297 161.802 43.9902 169.019 43.9902C177.119 43.9902 177.119 52.297 175 62.731L167.959 95.4261C177.472 67.163 190.14 44.0156 205.634 44.0156C208.106 44.0156 210.554 44.1928 213.027 45.4338V45.4085Z" fill="black"/>
<path d="M403.517 10.0801V11.1437C394.534 12.2074 389.967 22.4642 383.456 44.1934L353.882 140.481H352.469L323.778 51.9683L291.554 140.481H290.141L256.504 32.6957C251.937 18.0323 247.874 11.8529 240.48 11.1437V10.0801H281.511V11.1437C270.761 11.8529 267.784 17.1459 271.115 27.9345L297.863 113.99L321.986 46.8526L317.419 32.721C312.498 17.8803 308.965 11.8782 301.042 11.1691V10.1054H342.072V11.1691C331.499 11.8782 328.522 17.1712 331.853 27.9598L359.131 112.42L380.075 43.1551C386.409 21.7804 387.292 12.2327 374.448 11.1691V10.1054H403.492L403.517 10.0801Z" fill="black"/>
<path d="M402.381 137.643C409.598 137.643 410.128 131.641 410.128 120.32V69.0869C410.128 57.7665 407.125 54.0689 401.145 52.4734V51.4098L423.678 44.344H424.385V120.32C424.385 131.641 424.915 137.643 432.132 137.643V138.706H402.381V137.643ZM405.384 19.4491C405.384 13.9788 409.775 9.54688 415.427 9.54688C421.079 9.54688 425.293 13.9535 425.293 19.4491C425.293 24.9447 420.903 29.3513 415.427 29.3513C409.951 29.3513 405.384 24.9447 405.384 19.4491Z" fill="black"/>
<path d="M490.825 45.4085L487.292 60.6038H486.232C482.371 57.9446 477.779 56.3744 474.095 56.3744C469.351 56.3744 464.758 59.0336 460.014 65.7448V120.346C460.014 131.667 460.544 137.669 467.761 137.669V138.733H438.01V137.669C445.227 137.669 445.757 131.667 445.757 120.346V69.1131C445.757 57.7927 442.754 54.0951 436.773 52.4996V51.436L459.307 44.3702H460.014V63.2629C467.231 52.1198 474.978 44.0156 483.961 44.0156C486.081 44.0156 488.352 44.3702 490.825 45.4339V45.4085Z" fill="black"/>
<path d="M552.599 124.399C544.322 134.833 533.749 140.835 524.614 140.835C511.593 140.835 504.023 133.592 504.023 118.574V52.6775H494.863V50.7274L497.336 49.6638C505.966 45.9662 512.123 38.8751 517.221 22.9961H518.28V46.1435H551.211L548.738 52.6775H518.28V117.004C518.28 127.438 523.024 132.908 532.184 132.908C539.225 132.908 546.265 128.679 551.539 123.715L552.599 124.424V124.399Z" fill="black"/>
<path d="M557.065 135.162L555.652 113.255H556.712C563.223 128.982 571.323 138.353 584.873 138.353C595.27 138.353 604.934 132.882 604.934 120.853C604.934 110.241 597.541 106.367 583.99 98.9463L577.303 95.4007C567.967 90.285 558.125 84.2576 558.125 69.7714C558.125 53.6898 570.439 43.9648 587.17 43.9648C594.21 43.9648 603.9 45.5603 610.587 49.2579V67.2895H609.527C605.136 54.2216 596.153 46.4467 585.403 46.4467C574.654 46.4467 567.967 52.9807 567.967 62.5284C567.967 72.6079 575.713 77.5463 584.343 81.953L590.854 85.4985C603.521 92.2097 614.801 97.68 614.801 113.407C614.801 130.021 601.603 140.784 582.577 140.784C573.417 140.784 563.399 138.479 557.04 135.136L557.065 135.162Z" fill="black"/>
<path d="M620.43 93.8307C620.43 64.6812 639.279 44.0156 661.99 44.0156C674.481 44.0156 685.76 50.3723 691.741 59.0336L684.701 69.6449H683.641C680.108 56.3998 673.774 46.4975 661.99 46.4975C645.083 46.4975 635.419 65.9474 635.419 87.6766C635.419 112.242 645.462 132.021 664.463 132.021C677.13 132.021 686.82 124.601 692.271 116.649L693.331 117.358C687.174 128.147 676.601 140.86 658.129 140.86C634.712 140.86 620.455 120.194 620.455 93.856L620.43 93.8307Z" fill="black"/>
<path d="M778.013 137.643V138.707H748.262V137.643C755.479 137.643 756.009 131.641 756.009 120.32V75.4438C756.009 62.0214 751.971 53.7146 739.632 53.7146C731.885 53.7146 723.432 57.4121 715.862 63.2623V120.346C715.862 131.666 716.391 137.668 723.608 137.668V138.732H693.858V137.668C701.074 137.668 701.604 131.666 701.604 120.346V23.856C701.604 12.5355 698.602 8.83798 692.621 7.24248V6.17882L715.155 0.53125H715.862V61.6668C725.198 51.9418 736.276 43.9897 748.085 43.9897C761.813 43.9897 770.266 53.7146 770.266 71.5437V120.32C770.266 131.641 770.796 137.643 778.013 137.643Z" fill="black"/>
<path d="M856.187 128.982C853.361 134.275 847.557 140.809 839.634 140.809C830.827 140.809 828.884 132.148 828.531 125.791C821.314 134.807 810.741 140.809 800.723 140.809C788.762 140.809 780.309 133.212 780.309 122.246C780.309 109.532 789.998 100.871 811.296 94.6917L828.026 89.9305V76.3308C828.026 71.215 828.026 51.9424 810.236 51.9424C798.452 51.9424 789.822 60.2491 784.346 70.8605L783.286 70.3287C786.112 60.6037 796.307 43.9902 816.746 43.9902C833.83 43.9902 842.107 55.8172 842.107 72.4307V119.08C842.107 126.323 842.46 132.325 847.91 132.325C851.62 132.325 854.067 129.666 855.127 128.273L856.187 128.982ZM828.026 124.044V92.5897L815.535 96.6418C799.335 101.935 794.591 107.43 794.591 117.662C794.591 127.032 800.571 132.857 808.848 132.857C815.888 132.857 823.282 128.273 828.026 124.019V124.044Z" fill="black"/>
<path d="M912.133 1.06412L910.543 14.132H909.484C902.267 8.83902 896.639 5.64802 892.4 5.64802C884.653 5.64802 879.909 12.8911 879.909 29.6818V46.118H928.409L926.113 52.652H879.909V120.321C879.909 131.642 880.439 137.644 887.656 137.644V138.708H857.905V137.644C865.122 137.644 865.652 131.642 865.652 120.321V52.652H856.492V50.7019L865.652 46.118C865.652 17.8549 880.086 0.177734 901.383 0.177734C904.386 0.177734 908.954 0.53229 912.133 1.06412Z" fill="black"/>
<path d="M964.696 124.399C956.419 134.833 945.846 140.835 936.712 140.835C923.691 140.835 916.121 133.592 916.121 118.574V52.6775H906.961V50.7274L909.434 49.6638C918.064 45.9662 924.221 38.8751 929.318 22.9961H930.378V46.1435H963.308L960.835 52.6775H930.378V117.004C930.378 127.438 935.122 132.908 944.282 132.908C951.322 132.908 958.363 128.679 963.636 123.715L964.696 124.424V124.399Z" fill="black"/>
<path d="M969.187 135.162L967.773 113.255H968.833C975.344 128.982 983.444 138.353 996.994 138.353C1007.39 138.353 1017.06 132.882 1017.06 120.853C1017.06 110.241 1009.66 106.367 996.111 98.9463L989.424 95.4007C980.088 90.285 970.246 84.2576 970.246 69.7714C970.246 53.6898 982.561 43.9648 999.291 43.9648C1006.33 43.9648 1016.02 45.5603 1022.71 49.2579V67.2895H1021.65C1017.26 54.2216 1008.27 46.4467 997.524 46.4467C986.775 46.4467 980.088 52.9807 980.088 62.5284C980.088 72.6079 987.835 77.5463 996.465 81.953L1002.97 85.4985C1015.64 92.2097 1026.92 97.68 1026.92 113.407C1026.92 130.021 1013.72 140.784 994.698 140.784C985.538 140.784 975.52 138.479 969.161 135.136L969.187 135.162Z" fill="black"/>
<path d="M1116.8 90.6396C1116.8 120.853 1098.31 140.809 1073.68 140.809C1065.93 140.809 1058.89 138.505 1053.09 134.984V160.614C1053.09 171.934 1053.62 177.936 1060.83 177.936V179H1031.08V177.936C1038.3 177.936 1038.83 171.934 1038.83 160.614V69.0877C1038.83 57.7673 1035.83 54.0697 1029.85 52.4742V51.4106L1052.38 44.3448H1053.09V60.781C1059.95 51.4106 1069.11 43.9902 1081.6 43.9902C1102.19 43.9902 1116.8 63.2375 1116.8 90.6396ZM1101.49 95.2235C1101.49 71.8988 1092.5 51.9424 1074.56 51.9424C1065.58 51.9424 1058.54 57.0581 1053.09 63.4148V111.128C1053.09 126.855 1060.83 138.327 1074.39 138.327C1092.53 138.327 1101.49 117.839 1101.49 95.2235Z" fill="black"/>
<path d="M1174.47 45.4085L1170.93 60.6038H1169.87C1166.01 57.9446 1161.42 56.3744 1157.74 56.3744C1152.99 56.3744 1148.4 59.0336 1143.65 65.7448V120.346C1143.65 131.667 1144.18 137.669 1151.4 137.669V138.733H1121.65V137.669C1128.87 137.669 1129.4 131.667 1129.4 120.346V69.1131C1129.4 57.7927 1126.39 54.0951 1120.41 52.4996V51.436L1142.95 44.3702H1143.65V63.2629C1150.87 52.1198 1158.62 44.0156 1167.6 44.0156C1169.72 44.0156 1171.99 44.3702 1174.47 45.4339V45.4085Z" fill="black"/>
<path d="M1173.48 92.767C1173.48 63.4402 1191.8 43.9902 1216.43 43.9902C1241.06 43.9902 1258.85 62.3765 1258.85 92.0579C1258.85 121.739 1240.53 140.835 1216.08 140.835C1191.62 140.835 1173.48 122.448 1173.48 92.767ZM1243.38 92.4124C1243.38 66.7831 1233.87 46.4721 1216.1 46.4721C1198.34 46.4721 1189 65.7194 1189 92.4124C1189 119.105 1198.69 138.353 1216.45 138.353C1234.22 138.353 1243.38 119.105 1243.38 92.4124Z" fill="black"/>
<path d="M1332.28 120.321V46.1176H1285.62V29.6814C1285.62 12.916 1290.36 5.64757 1298.99 5.64757C1307.09 5.64757 1316.25 11.1432 1322.94 17.6771H1324L1326.1 3.01372C1320.47 1.06367 1314.31 0 1309.21 0C1286.5 0 1271.34 15.018 1271.34 46.1176L1262.2 50.7268V52.6515H1271.34V120.321C1271.34 131.641 1270.83 137.644 1263.62 137.644V138.707H1293.37V137.644C1286.15 137.644 1285.62 131.641 1285.62 120.321V52.6515H1309.04C1316.78 52.6515 1318 57.7926 1318 69.0877V120.321C1318 131.641 1317.47 137.644 1310.25 137.644V138.707H1340V137.644C1332.78 137.644 1332.28 131.641 1332.28 120.321Z" fill="black"/>
</svg>
